<svg width="16" height="16" viewBox="0 0 16 16" fill="none" xmlns="http://www.w3.org/2000/svg">
<g clip-path="url(#clip0_202_195)">
<path d="M4.00008 14C4.73646 14 5.33341 13.4031 5.33341 12.6667C5.33341 11.9303 4.73646 11.3333 4.00008 11.3333C3.2637 11.3333 2.66675 11.9303 2.66675 12.6667C2.66675 13.4031 3.2637 14 4.00008 14Z" stroke="black" stroke-width="0.5" stroke-linecap="round" stroke-linejoin="round"/>
<path d="M11.3333 14C12.0697 14 12.6667 13.4031 12.6667 12.6667C12.6667 11.9303 12.0697 11.3333 11.3333 11.3333C10.597 11.3333 10 11.9303 10 12.6667C10 13.4031 10.597 14 11.3333 14Z" stroke="black" stroke-width="0.5" stroke-linecap="round" stroke-linejoin="round"/>
<path d="M11.3334 11.3333H4.00008V2H2.66675" stroke="black" stroke-width="0.5" stroke-linecap="round" stroke-linejoin="round"/>
<path d="M4 3.33334L13.3333 4.00001L12.6667 8.66668H4" stroke="black" stroke-width="0.5" stroke-linecap="round" stroke-linejoin="round"/>
</g>
<defs>
<clipPath id="clip0_202_195">
<rect width="16" height="16" fill="white"/>
</clipPath>
</defs>
</svg>
