<svg width="62" height="13" viewBox="0 0 62 13" fill="none" xmlns="http://www.w3.org/2000/svg">
<path d="M9.71023 0.363636V12H7.83523L2.35227 4.07386H2.25568V12H0.147727V0.363636H2.03409L7.51136 8.29545H7.61364V0.363636H9.71023ZM15.7798 12.1705C14.9048 12.1705 14.1491 11.9886 13.5128 11.625C12.8802 11.2576 12.3935 10.7386 12.0526 10.0682C11.7116 9.39394 11.5412 8.60038 11.5412 7.6875C11.5412 6.78977 11.7116 6.00189 12.0526 5.32386C12.3973 4.64205 12.8783 4.11174 13.4957 3.73295C14.1132 3.35038 14.8385 3.15909 15.6719 3.15909C16.2098 3.15909 16.7173 3.24621 17.1946 3.42045C17.6757 3.59091 18.0999 3.85606 18.4673 4.21591C18.8385 4.57576 19.1302 5.03409 19.3423 5.59091C19.5545 6.14394 19.6605 6.80303 19.6605 7.56818V8.19886H12.5071V6.8125H17.6889C17.6851 6.41856 17.5999 6.06818 17.4332 5.76136C17.2666 5.45076 17.0336 5.20644 16.7344 5.02841C16.4389 4.85038 16.0942 4.76136 15.7003 4.76136C15.2798 4.76136 14.9105 4.86364 14.5923 5.06818C14.2741 5.26894 14.026 5.53409 13.848 5.86364C13.6738 6.18939 13.5848 6.54735 13.581 6.9375V8.14773C13.581 8.6553 13.6738 9.09091 13.8594 9.45455C14.045 9.81439 14.3045 10.0909 14.6378 10.2841C14.9711 10.4735 15.3613 10.5682 15.8082 10.5682C16.1075 10.5682 16.3783 10.5265 16.6207 10.4432C16.8632 10.3561 17.0734 10.2292 17.2514 10.0625C17.4295 9.89583 17.5639 9.68939 17.6548 9.44318L19.5753 9.65909C19.4541 10.1667 19.223 10.6098 18.8821 10.9886C18.545 11.3636 18.1132 11.6553 17.5866 11.8636C17.0601 12.0682 16.4579 12.1705 15.7798 12.1705ZM25.2642 12.1705C24.3892 12.1705 23.6335 11.9886 22.9972 11.625C22.3646 11.2576 21.8778 10.7386 21.5369 10.0682C21.196 9.39394 21.0256 8.60038 21.0256 7.6875C21.0256 6.78977 21.196 6.00189 21.5369 5.32386C21.8816 4.64205 22.3627 4.11174 22.9801 3.73295C23.5975 3.35038 24.3229 3.15909 25.1562 3.15909C25.6941 3.15909 26.2017 3.24621 26.679 3.42045C27.16 3.59091 27.5843 3.85606 27.9517 4.21591C28.3229 4.57576 28.6146 5.03409 28.8267 5.59091C29.0388 6.14394 29.1449 6.80303 29.1449 7.56818V8.19886H21.9915V6.8125H27.1733C27.1695 6.41856 27.0843 6.06818 26.9176 5.76136C26.7509 5.45076 26.518 5.20644 26.2188 5.02841C25.9233 4.85038 25.5786 4.76136 25.1847 4.76136C24.7642 4.76136 24.3949 4.86364 24.0767 5.06818C23.7585 5.26894 23.5104 5.53409 23.3324 5.86364C23.1581 6.18939 23.0691 6.54735 23.0653 6.9375V8.14773C23.0653 8.6553 23.1581 9.09091 23.3438 9.45455C23.5294 9.81439 23.7888 10.0909 24.1222 10.2841C24.4555 10.4735 24.8456 10.5682 25.2926 10.5682C25.5919 10.5682 25.8627 10.5265 26.1051 10.4432C26.3475 10.3561 26.5578 10.2292 26.7358 10.0625C26.9138 9.89583 27.0483 9.68939 27.1392 9.44318L29.0597 9.65909C28.9384 10.1667 28.7074 10.6098 28.3665 10.9886C28.0294 11.3636 27.5975 11.6553 27.071 11.8636C26.5445 12.0682 25.9422 12.1705 25.2642 12.1705ZM34.1236 12.1534C33.438 12.1534 32.8243 11.9773 32.2827 11.625C31.741 11.2727 31.313 10.7614 30.9986 10.0909C30.6842 9.42045 30.527 8.60606 30.527 7.64773C30.527 6.67803 30.6861 5.85985 31.0043 5.19318C31.3262 4.52273 31.7599 4.01705 32.3054 3.67614C32.8509 3.33144 33.4588 3.15909 34.1293 3.15909C34.6406 3.15909 35.0611 3.24621 35.3906 3.42045C35.7202 3.59091 35.9815 3.79735 36.1747 4.03977C36.3679 4.27841 36.5175 4.50379 36.6236 4.71591H36.7088V0.363636H38.7713V12H36.7486V10.625H36.6236C36.5175 10.8371 36.3641 11.0625 36.1634 11.3011C35.9626 11.536 35.6974 11.7367 35.3679 11.9034C35.0384 12.0701 34.6236 12.1534 34.1236 12.1534ZM34.6974 10.4659C35.133 10.4659 35.5043 10.3485 35.8111 10.1136C36.1179 9.875 36.3509 9.54356 36.5099 9.11932C36.669 8.69508 36.7486 8.20076 36.7486 7.63636C36.7486 7.07197 36.669 6.58144 36.5099 6.16477C36.3546 5.74811 36.1236 5.42424 35.8168 5.19318C35.5137 4.96212 35.1406 4.84659 34.6974 4.84659C34.2391 4.84659 33.8565 4.96591 33.5497 5.20455C33.2429 5.44318 33.0118 5.77273 32.8565 6.19318C32.7012 6.61364 32.6236 7.0947 32.6236 7.63636C32.6236 8.18182 32.7012 8.66856 32.8565 9.09659C33.0156 9.52083 33.2486 9.85606 33.5554 10.1023C33.866 10.3447 34.2467 10.4659 34.6974 10.4659ZM46.5256 8.32955V3.27273H48.5824V12H46.5881V10.4489H46.4972C46.3002 10.9375 45.9763 11.3371 45.5256 11.6477C45.0786 11.9583 44.5275 12.1136 43.8722 12.1136C43.3002 12.1136 42.7945 11.9867 42.3551 11.733C41.9195 11.4754 41.5786 11.1023 41.3324 10.6136C41.0862 10.1212 40.9631 9.52652 40.9631 8.82955V3.27273H43.0199V8.51136C43.0199 9.06439 43.1714 9.50379 43.4744 9.82955C43.7775 10.1553 44.1752 10.3182 44.6676 10.3182C44.9706 10.3182 45.2642 10.2443 45.5483 10.0966C45.8324 9.94886 46.0653 9.72917 46.2472 9.4375C46.4328 9.14205 46.5256 8.77273 46.5256 8.32955ZM57.5952 5.57955L55.7202 5.78409C55.6671 5.5947 55.5743 5.41667 55.4418 5.25C55.313 5.08333 55.1387 4.94886 54.919 4.84659C54.6993 4.74432 54.4304 4.69318 54.1122 4.69318C53.6842 4.69318 53.3243 4.78598 53.0327 4.97159C52.7448 5.1572 52.6027 5.39773 52.6065 5.69318C52.6027 5.94697 52.6955 6.15341 52.8849 6.3125C53.0781 6.47159 53.3963 6.60227 53.8395 6.70455L55.3281 7.02273C56.1539 7.20076 56.7675 7.48295 57.169 7.86932C57.5743 8.25568 57.7789 8.76136 57.7827 9.38636C57.7789 9.93561 57.6179 10.4205 57.2997 10.8409C56.9853 11.2576 56.5478 11.5833 55.9872 11.8182C55.4266 12.053 54.7827 12.1705 54.0554 12.1705C52.9872 12.1705 52.1274 11.947 51.4759 11.5C50.8243 11.0492 50.4361 10.4223 50.3111 9.61932L52.3168 9.42614C52.4077 9.82008 52.6009 10.1174 52.8963 10.3182C53.1918 10.5189 53.5762 10.6193 54.0497 10.6193C54.5384 10.6193 54.9304 10.5189 55.2259 10.3182C55.5251 10.1174 55.6747 9.86932 55.6747 9.57386C55.6747 9.32386 55.5781 9.11742 55.3849 8.95455C55.1955 8.79167 54.9001 8.66667 54.4986 8.57955L53.0099 8.26705C52.1728 8.0928 51.5535 7.79924 51.152 7.38636C50.7505 6.9697 50.5516 6.44318 50.5554 5.80682C50.5516 5.26894 50.6974 4.80303 50.9929 4.40909C51.2921 4.01136 51.7069 3.70455 52.2372 3.48864C52.7713 3.26894 53.3868 3.15909 54.0838 3.15909C55.1065 3.15909 55.9115 3.37689 56.4986 3.8125C57.0895 4.24811 57.455 4.83712 57.5952 5.57955Z" fill="black"/>
<path d="M60.7457 12.125C60.401 12.125 60.1056 12.0038 59.8594 11.7614C59.6132 11.5189 59.492 11.2235 59.4957 10.875C59.492 10.5341 59.6132 10.2424 59.8594 10C60.1056 9.75758 60.401 9.63636 60.7457 9.63636C61.0791 9.63636 61.3688 9.75758 61.6151 10C61.8651 10.2424 61.992 10.5341 61.9957 10.875C61.992 11.1061 61.9313 11.3163 61.8139 11.5057C61.7003 11.6951 61.5488 11.8466 61.3594 11.9602C61.1738 12.0701 60.9692 12.125 60.7457 12.125Z" fill="#E73C17"/>
</svg>
