<svg width="16" height="16" viewBox="0 0 16 16" fill="none" xmlns="http://www.w3.org/2000/svg">
<g clip-path="url(#clip0_202_192)">
<path d="M13.0001 9.04799L8.00012 14L3.00012 9.04799M3.00012 9.04799C2.67032 8.72706 2.41055 8.34133 2.23715 7.91508C2.06375 7.48882 1.98049 7.03129 1.99261 6.57127C2.00473 6.11126 2.11196 5.65874 2.30756 5.24221C2.50315 4.82568 2.78288 4.45416 3.12911 4.15104C3.47534 3.84792 3.88059 3.61978 4.31933 3.48097C4.75806 3.34217 5.22079 3.29571 5.67836 3.34452C6.13594 3.39333 6.57845 3.53636 6.97804 3.76459C7.37762 3.99282 7.72562 4.30132 8.00012 4.67065C8.27581 4.304 8.62421 3.9982 9.02352 3.77239C9.42283 3.54658 9.86445 3.40562 10.3207 3.35833C10.777 3.31105 11.2382 3.35845 11.6753 3.49758C12.1124 3.63671 12.5161 3.86457 12.8612 4.16689C13.2062 4.46922 13.4851 4.83951 13.6804 5.25458C13.8757 5.66965 13.9833 6.12057 13.9963 6.57912C14.0094 7.03767 13.9276 7.49398 13.7562 7.91949C13.5848 8.34499 13.3274 8.73053 13.0001 9.05199" stroke="black" stroke-width="0.5" stroke-linecap="round" stroke-linejoin="round"/>
</g>
<defs>
<clipPath id="clip0_202_192">
<rect width="16" height="16" fill="white"/>
</clipPath>
</defs>
</svg>
