<svg width="30" height="30" viewBox="0 0 30 30" fill="none" xmlns="http://www.w3.org/2000/svg">
<g clip-path="url(#clip0_102_244)">
<path d="M15.0002 3.74989C16.7612 3.7495 18.4978 4.16254 20.07 4.95578C21.6423 5.74902 23.0064 6.90029 24.0525 8.31694C25.0987 9.73359 25.7976 11.376 26.0931 13.1121C26.3886 14.8482 26.2724 16.6294 25.7539 18.3124C26.224 19.3538 26.3659 20.5136 26.1606 21.6376C25.9553 22.7616 25.4125 23.7964 24.6046 24.6043C23.7967 25.4123 22.7619 25.955 21.6379 26.1603C20.5139 26.3656 19.354 26.2238 18.3127 25.7536C16.3574 26.3568 14.2746 26.4152 12.2886 25.9227C10.3026 25.4302 8.4885 24.4053 7.04163 22.9584C5.59476 21.5115 4.56989 19.6975 4.07736 17.7114C3.58483 15.7254 3.64327 13.6427 4.24642 11.6874C3.77588 10.646 3.63371 9.48591 3.83884 8.36167C4.04397 7.23744 4.58666 6.20235 5.39467 5.3942C6.20268 4.58605 7.23768 4.04319 8.36188 3.83787C9.48608 3.63255 10.6462 3.77452 11.6877 4.24489C12.7609 3.91529 13.8775 3.74843 15.0002 3.74989V3.74989Z" stroke="white" stroke-width="2.5" stroke-linecap="round" stroke-linejoin="round"/>
<path d="M10 18.125C10.625 20.625 12.9475 21.25 15 21.25C18.6312 21.25 20 19.7662 20 18.125C20 16.2462 17.5912 15 15 15C12.4088 15 10 13.7538 10 11.875C10 10.2338 11.3688 8.75 15 8.75C17.0525 8.75 19.375 9.375 20 11.875" stroke="white" stroke-width="2.5" stroke-linecap="round" stroke-linejoin="round"/>
</g>
<defs>
<clipPath id="clip0_102_244">
<rect width="30" height="30" fill="white"/>
</clipPath>
</defs>
</svg>
