<svg width="30" height="30" viewBox="0 0 30 30" fill="none" xmlns="http://www.w3.org/2000/svg">
<g clip-path="url(#clip0_102_231)">
<path d="M3.75 25.9585L5.8125 21.2613C4.23458 19.0462 3.52833 16.3378 3.82631 13.6444C4.12428 10.951 5.40598 8.45773 7.43088 6.63245C9.45579 4.80717 12.0847 3.7754 14.8242 3.73076C17.5638 3.68612 20.2256 4.63168 22.3102 6.38999C24.3948 8.1483 25.7589 10.5985 26.1465 13.2807C26.534 15.963 25.9184 18.6929 24.4151 20.9581C22.9119 23.2234 20.6243 24.8683 17.9817 25.5841C15.3392 26.2999 12.5233 26.0375 10.0625 24.846L3.75 25.9585" stroke="white" stroke-width="2.5" stroke-linecap="round" stroke-linejoin="round"/>
<path d="M11.25 12.3613C11.25 12.5252 11.3158 12.6824 11.4331 12.7983C11.5503 12.9142 11.7092 12.9793 11.875 12.9793C12.0408 12.9793 12.1997 12.9142 12.3169 12.7983C12.4342 12.6824 12.5 12.5252 12.5 12.3613V11.1251C12.5 10.9612 12.4342 10.804 12.3169 10.6881C12.1997 10.5722 12.0408 10.5071 11.875 10.5071C11.7092 10.5071 11.5503 10.5722 11.4331 10.6881C11.3158 10.804 11.25 10.9612 11.25 11.1251V12.3613ZM11.25 12.3613C11.25 14.0005 11.9085 15.5725 13.0806 16.7316C14.2527 17.8907 15.8424 18.5418 17.5 18.5418H18.75C18.9158 18.5418 19.0747 18.4767 19.1919 18.3608C19.3092 18.2449 19.375 18.0877 19.375 17.9238C19.375 17.7599 19.3092 17.6027 19.1919 17.4868C19.0747 17.3708 18.9158 17.3057 18.75 17.3057H17.5C17.3342 17.3057 17.1753 17.3708 17.0581 17.4868C16.9408 17.6027 16.875 17.7599 16.875 17.9238C16.875 18.0877 16.9408 18.2449 17.0581 18.3608C17.1753 18.4767 17.3342 18.5418 17.5 18.5418" stroke="white" stroke-width="2.5" stroke-linecap="round" stroke-linejoin="round"/>
</g>
<defs>
<clipPath id="clip0_102_231">
<rect width="30" height="29.6668" fill="white"/>
</clipPath>
</defs>
</svg>
